<?xml version="1.0" encoding="utf-8"?>
<svg xmlns="http://www.w3.org/2000/svg" width="64" height="64" viewBox="0 0 512 512">
  <path fill="#FEBF10" d="M399.5 148.2h-.1c.2.1.3.2.5.2C400.3 148.5 400.3 148.3 399.5 148.2zM367.2 217.1c-1.5-.3-3.7-1.2-4.8.1-.2.2-.4.5-.5.7 1.3 1.1 2 2.8 1.8 4.9-.6 4.4 12 5 12.5-.8C376.4 219.3 369.2 217.5 367.2 217.1zM399.3 148.2C399.3 148.2 399.3 148.2 399.3 148.2 399.3 148.2 399.3 148.2 399.3 148.2c-.9-.6-1.7-1.4-2.3-2.6.7 1.5 1.5 2.3 2.1 2.7C399.3 148.2 399.3 148.2 399.3 148.2 399.4 148.2 399.4 148.2 399.3 148.2zM155.4 157.9c-2.6-5.8-11.4-4.1-13.3 1.2 2.9 1.4 6.2 2.2 9.4 2.5 1.3.1 3.1.2 4.3-.5.1-.2.2-.5.1-.9C155.8 159.3 155.7 158.7 155.4 157.9z" />
  <path fill="#14B6B9" d="M278.7,137.5c-7.7-3.5-16.6-3.7-24.9-3.8c-9.3-0.2-18.3-1.1-27.6-2.1c-22.2-2.4-44.1-4.6-65.6-11.1c-10.2-3.1-20-6.9-29.9-10.7c-9.1-3.5-18.4-6.7-28.1-7.3c-3.8,19.4-7.8,38.8-11.6,58.2c2.6,0.1,5.2,1.6,5.8,4.8c-0.4-2.2,0.5,0.9,0.8,1.4c0.7,1.5,1.3,3.1,2,4.6c1.6,3.5,3.1,7,4.7,10.5c4.1,9.5,8.4,19,11.8,28.8c3.1,8.9,5,17.8,7.2,26.9c0.6,2.4,1.2,6.2,3.1,7.9c2,1.7,5.3-0.2,7.3-1c10.4-4.2,19.7-10.8,29.9-15.4c7-3.2,12.7-4.9,20.1-2.4c2.6,0.8,7.6,3.1,12.2,6c-0.4-4.4-1-8.8-2.1-13c-2-8-4.3-16.1-1.4-24.2c0.2-0.6,0.5-1.1,0.8-1.5c0-1.3,0.4-2.6,1.5-3.7c2.1-2.3,5.3-3.2,8.2-4c8.6-2.4,17.4-4.3,26.2-6.1c14.1-3,28.2-5.5,42-9.5c0.4-0.1,0.8-0.2,1.2-0.3c0.2-1.8,1.2-3.6,3.3-4.5c4.4-2,5.8-10.6,6.3-14.7C282.2,146.9,283.1,139.5,278.7,137.5z M157.6,172c-7.3,1.7-16.4-0.4-22.7-4.4c-0.5-0.3-0.9-0.7-1.3-1.1c-1.5-0.7-2.7-2.2-2.7-4.4c-0.2-8.7,4.7-16.2,13.4-18.1c7.7-1.8,16.6,0.9,20.6,8.2C169,159.8,166.8,169.9,157.6,172z" />
  <path fill="#D6E5E5" d="M476.6,373.9c-0.3-0.3-0.5-0.6-0.7-0.9c-0.1-3.1-0.9-6-2.1-8.8c-0.3-2.8-1.1-5.4-2.4-8c-4.3-14.8-5.5-30.4-9.3-45.3c-5.2-19.9-10-39.9-15.4-59.8c-5.3-19.8-11.4-39.4-18.1-58.8c-3.4-9.9-7-19.7-11.4-29.1c-1.7-3.7-3.2-7.4-4.8-11.1c-1.3-2.9-2.4-4.5-5.8-3.9c-0.6,0.1-1.1,0.1-1.6,0.1c-1.6,0.8-3.6,0.9-5.3,0.2c-0.2,0-0.4-0.1-0.6-0.2c-0.1,0-0.1,0-0.2,0c-1,0-1.9,0.1-2.9,0.2c-2.8,0.3-5.6,0.8-8.4,1.3c-6,1.2-11.9,2.6-17.8,4.2c-17.9,4.9-36,9.1-53.9,14.4c-22.4,6.6-44.5,13.8-67.3,18.6c-11,2.3-22.2,4.1-33,7.1c-2.4,0.7-4.9,1.2-7.3,1.8c-1.5,0.4-3,0.8-4.5,1.3c-0.3,0.8-0.8,1.6-1.5,2.1c-0.1,0.3-0.1,0.6-0.2,0.9c-2.6,7.1,2.9,16,3.6,23.1c0.9,10.4,1.8,20.9,3.4,31.2c3.4,22,5.4,44.1,9.9,65.9c4.5,22.1,9.9,44.2,16.2,65.8c3.2,10.9,7.1,21.2,11.2,31.7c2,5,4.1,10.5,5.6,16.1c0.3,1.7,0.6,3.5,1.1,5.2c0.1,0.9,0.3,1.8,0.4,2.7c0.1,0.2,0.1,0.4,0.1,0.6c0.2,0,0.5,0.1,0.7,0.1c1.6,3.9,4.1,7,8.3,8.3c0.6,0.2,1.1,0.1,1.6-0.2c3.3,0.6,7.1,0.1,10-0.3c7.9-1.3,15.6-3.9,23.1-6.7c22.8-8.3,45.8-15.9,68.9-23.2c26.5-8.4,52.9-17.2,78.7-27.6C448,391.7,480.9,378.5,476.6,373.9z M424.6,341.8c-18,9.4-37.8,16.4-57.4,21.7c-10.8,2.9-21.8,4.9-32.7,7.6c-11.2,2.7-22.2,6.2-33.3,9c-11.9,3-28.5,11.1-40.4,4.5c-0.2-0.1-0.4-0.3-0.6-0.4c-2.7,1.4-6.6,0.9-8.1-2.7c-12.2-29.3-14.5-61.3-20.8-92.1c-3.4-16.3-6.2-33.1-10.8-49.1c-1.6-5.6-3.2-11.3-5.2-16.8c-0.1-2.5-0.3-5-0.3-7.6c0.2-1.7,0.6-3.4,1.1-5.2c0.6-1.9,1.6-3.5,2.6-5.2c0.3-0.2,0.7-0.3,1-0.5c0.5-0.2,1-0.4,1.5-0.5c2.8-0.8,6-1.1,8.6-2.1c3.4-0.6,6.7-1.2,10-2.1c7-2,13.8-4.9,20.7-7.2c1.4-0.3,2.8-0.7,4.2-1c14.6-3.1,29.4-4.6,44-7.3c29.7-5.5,56.7-18.8,85.5-27.4c2-0.6,3.8-0.1,5,1c1.4-0.3,3,0,4.4,1.1c4.5,3.4,6.7,8.5,7.9,13.9c1.4,6,3,11.9,4.5,17.8c3.4,13.6,7.3,27.2,10.6,40.8c3.3,13.4,5.9,26.9,8.5,40.5c2,10.1,3.7,20.4,6,30.4c-0.2,6.7,0,13.4,0.1,20.2c0,0.6,0,1.2,0,1.7C439.1,332,431.7,338.1,424.6,341.8z" />
  <path fill="#3AB37C" d="M198.4,257.5c0.3-3.9-0.5-7.7-3.4-10.7c-0.7-0.7-1.4-1.3-2.2-1.8c0-0.4,0.1-0.8,0.3-1.2c-0.7-0.7-1.5-1.3-2.3-1.8c-2.4-1.6-5.1-3-7.8-4.1c-1.9-0.8-4.5-2-6.5-1.9c-2.7,0.1-7.6,2.4-10.8,4c-9.5,4.8-18.4,10.9-28.5,14.7c-6.4,2.4-13.5,3.8-18.8-1.7c-4.8-4.9-5.9-12.3-7.1-18.8c-1.8-9.2-5-18.3-8.4-27c-3.4-8.7-7.2-17.3-11-25.8c-1.1-2.4-2.4-5-3.6-7.5c-0.7,3.6-1.3,7.1-2,10.7c-2.7,14.8-5,29.7-7.5,44.5c-1.1,6.7-2.8,13.1-4.3,19.7c-1.3,5.4-3.8,11.3-3.8,17c0.1,6.2,2.6,9.7,8.2,12.1c4.4,1.8,9,2.9,13.7,3.9c11.3,2.3,22.2,5.7,32.9,10c13.7,5.5,26.6,11.8,41.1,15.3c13.2,3.2,26.5,5.5,39.5,9.3c0.3,0.1,0.6,0.2,0.8,0.3C203.4,297,200.9,277.3,198.4,257.5z" />
  <path fill="#D6E5E5" d="M298.9,120.6c-5-0.6-10.3,0.1-15.2-1.1c-5.6-1.4-11.2-2.6-16.7-4c-11.8-2.8-23.7-5.3-35.6-7.7c-47.5-9.6-93.7-26.3-142.2-31.2c-0.7,0.3-1.5,0.6-2.4,0.6h-0.2c-10.8,38.1-15.2,77.5-22.4,116.4c-2.9,15.9-6.1,31.7-9.3,47.5c-3.1,15.7-6,31.4-10.3,46.8c-2.1,7.6-4.7,15.1-6.8,22.7c-1.5,5.3-3.3,11.1-2.7,16.7c1.4,12.5,15.7,17.4,26.1,20.6c12.3,3.7,24.7,6.9,36.7,11.2c7.3,2.6,14.5,5.5,21.5,8.7c6.6,3,13,6.6,19.8,8.9c14.7,5,30.2,7.1,45.5,8.9c7.9,0.9,15.9,1.8,23.7,3c3.7,0.6,7.3,1.2,11,1.9c1.8,0.4,3.7,0.8,5.5,1.2c0.2,0,0.5,0.1,0.8,0.2c-0.8-2.6-1.5-5.2-2.3-7.9c-5.3-19.2-10.3-38.7-14.3-58.3c-1.1,1.2-2.7,1.8-4.8,1.1c-14.2-4.2-28.9-6.4-43.1-10.2c-14.7-3.9-28-10.6-42.1-16c-6.5-2.5-13.1-5-19.9-6.5c-4.9-1.1-10-2-14.9-3.3c-10.3-2.7-20.8-7.1-23.6-18.4c-3.2-12.5,4.1-26.1,6.3-38.3c2.8-15.3,5-30.7,7.7-46c5.5-31.3,12.2-62.5,18.3-93.7c0.9-4.4,5.6-5.2,8.5-3.3c23.9,1.2,45.5,14.2,68.3,20.3c12.5,3.3,25.1,5.5,37.9,6.9c12.2,1.4,24.8,3.6,37.1,4c9.9,0.3,20.3-0.3,30,2.1c7.6,1.8,15.3,4.9,17.3,13.3c1.9,7.9,1.5,18.7-2.4,27c3.5-1.1,7-2.1,10.5-3.2c-0.2-0.4-0.4-0.7-0.6-1.1c0.2-0.2,0.4-0.5,0.5-0.8c0.3-0.8,0.6-1.5,0.9-2.3c0.6-1.3,1-2.6,1.3-4c0.3-0.1,0.6-0.2,0.9-0.2C306,142.1,312.9,122.2,298.9,120.6z" />
  <path fill="#3AB37C" d="M431.9,309.6c-0.1-0.2-0.2-0.4-0.3-0.6c0,0,0,0,0,0c-3.5-13.8-6-27.9-8.6-42c-18.7,7.3-32.9,24.8-41.8,42.2c-1.4,2.7-4.7,3.8-7.4,2.5c-8.9-4.4-18-8.5-27.4-11.7c-7.8-2.7-16.8-6.5-24.8-2.5c-8.9,4.5-16.6,12.8-24.1,19.3c-8.6,7.4-17.1,14.8-25.6,22.3c-3.6,3.2-7.2,6.4-10.7,9.6c-1.2,1.1-2.3,2.1-3.5,3.2c-0.5,0.5-0.7,0.9-0.8,1c0-0.1,0.2-0.4,0.3-0.9c-0.5,1.4-1.3,2.3-2.3,2.8c1.7,6.6,3.8,13.2,6.3,19.6c1.3-0.6,2.9-0.7,4.6,0.2c4.8,2.7,12.2,0.4,17.1-0.9c5.9-1.5,11.7-3.2,17.5-4.9c18.6-5.3,37.4-9.3,56.1-14c17.8-4.5,35.2-10.3,52-17.8c3.7-1.6,24.6-10.1,23.3-17.2c0.3-0.3,0.5-0.6,0.6-1.2C432.9,315.7,432.9,312.7,431.9,309.6z" />
  <path fill="#14B6B9" d="M416.9,237.6c-3.2-13-6.8-25.9-10.1-38.9c-1.6-6.3-3.4-12.6-4.8-18.9c-1-4.2-1.6-8.6-5-11.5c-28.7,8.6-55.8,21.8-85.4,27.3c-15.5,2.9-31.4,4.1-46.7,7.9c-13.8,3.5-27.4,8.5-41.6,9.7c0.2,0.7,0.4,1.4,0.7,2.1c0.7,1.9,1.4,3.7,2,5.6c2.3,7.6,4.8,15.1,6.6,22.8c3.8,15.5,6.9,31.3,10,47c3.4,17.2,5.7,34.6,9.3,51.8c0.3-0.3,0.7-0.6,0.9-0.8c3.8-3.5,7.6-6.9,11.5-10.2c9.4-8.2,18.8-16.4,28.2-24.6c2.9-2.5,5.9-5,8.8-7.5c5.9-5,12.2-11.3,19.9-13.3c9.8-2.6,18.9,0.5,28.2,3.7c8.3,2.8,16.4,6.2,24.3,9.9c9.4-16.8,23.2-32.4,40.6-40.8c0.7-1.4,2.1-2.4,4.3-2.4h2c0,0,0.1,0,0.1,0C419.8,250,418.4,243.8,416.9,237.6z M386.3,226.5c-5.2,15.5-32.2,13.4-33.5-2.5c-3.2-1.2-5.5-5.4-2.6-8.9c2.5-3.1,4.8-7.2,8.8-8.6c4.3-1.6,9.1-0.7,13.4,0.7C381.1,210.1,389.8,215.9,386.3,226.5z" />
  <path d="M399.4,148.2c0,0-0.1,0-0.2,0c0.3,0.1,0.5,0.2,0.6,0.2C399.7,148.4,399.5,148.3,399.4,148.2z" />
  <path d="M485.4,367.3c-0.1-0.1-0.1-0.2-0.2-0.2c0.6-1.3,0.8-2.9,0.2-4.2c-7.9-18.7-8.8-39.6-13.9-59.1c-5.6-21.7-10.9-43.6-16.9-65.2c-5.8-20.9-12.4-41.6-20-61.9c-3.6-9.5-8-18.7-11.9-28.1c-2.9-7.2-8.8-12.8-17-11.3c-0.8,0.2-1.6,0.5-2.2,0.9c-3-1.3-6.8-0.9-10.1-0.5c-7.3,0.9-14.6,2.7-21.7,4.5c-19.7,4.9-39.3,10-58.8,15.7c2.9-13.8,10.4-31.5-0.8-43c-7.2-7.4-19-4.2-28-6.4c-13.1-3.2-26.2-6.2-39.4-8.9c-13.3-2.8-26.6-5.3-39.8-8.6c-13-3.3-26-6.9-39-10.3c-25.7-6.7-51.6-12.6-78.1-15c-2.3-3-8.7-2.9-10.2,2.1c-9.4,30.4-14.5,61.9-19.4,93.3c-5,31.8-11.7,63.4-17.9,95c-3.1,15.9-7.1,31.5-12.1,46.9c-3.6,11-7.3,23.8-2,34.9c5.2,10.8,17.5,16.1,28.2,19.7c12,4,24.4,7,36.4,11.1c11.3,3.8,22.2,8.6,32.9,13.8c11.1,5.4,22.8,8.6,34.9,10.9c12,2.3,24.2,3.4,36.4,4.9c6.1,0.8,12.2,1.6,18.3,2.7c3.7,0.7,7.8,2.1,11.7,2.9c0.7,0.3,1.5,0.5,2.4,0.5h1.8c1.4,4.1,3,8.2,4.6,12.3c3,7.2,6.6,15.2,8.1,23.2c2.8,4.8,5.4,9.8,7.9,14.8c10.2,12.6,31.8,6.1,45.2,1.6c25.5-8.6,50.8-17.7,76.5-25.8c15.1-4.8,30.2-9.8,45.1-15c14.4-5.1,28.3-11.5,42.6-16.5C470.2,395.1,496.6,382.2,485.4,367.3z M224.8,391.9c-1.8-0.4-3.7-0.8-5.5-1.2c-3.6-0.8-7.3-1.4-11-1.9c-7.9-1.2-15.8-2.1-23.7-3c-15.4-1.8-30.8-3.9-45.5-8.9c-6.8-2.4-13.2-5.9-19.8-8.9c-7-3.2-14.2-6.1-21.5-8.7c-12.1-4.3-24.5-7.5-36.7-11.2c-10.4-3.2-24.7-8.1-26.1-20.6c-0.6-5.6,1.2-11.4,2.7-16.7c2.1-7.6,4.7-15.1,6.8-22.7c4.3-15.4,7.2-31.2,10.3-46.8c3.2-15.8,6.4-31.7,9.3-47.5c7.2-38.9,11.6-78.3,22.4-116.4h0.2c1,0,1.8-0.2,2.4-0.6c48.4,4.8,94.6,21.5,142.2,31.2c11.9,2.4,23.8,4.8,35.6,7.7c5.6,1.3,11.2,2.6,16.7,4c4.9,1.2,10.2,0.6,15.2,1.1c14,1.5,7.1,21.4,4,32.7c-0.3,0-0.6,0.1-0.9,0.2c-0.3,1.4-0.7,2.7-1.3,4c-0.3,0.8-0.5,1.5-0.9,2.3c-0.1,0.3-0.3,0.6-0.5,0.8c0.2,0.4,0.3,0.8,0.6,1.1c-3.5,1.1-7,2.1-10.5,3.2c3.9-8.3,4.3-19.1,2.4-27c-2-8.4-9.6-11.4-17.3-13.3c-9.7-2.3-20.1-1.8-30-2.1c-12.3-0.3-24.9-2.6-37.1-4c-12.8-1.5-25.4-3.6-37.9-6.9c-22.8-6.1-44.4-19-68.3-20.3c-2.9-1.8-7.6-1.1-8.5,3.3c-6.1,31.2-12.7,62.4-18.3,93.7c-2.7,15.3-4.9,30.7-7.7,46c-2.2,12.1-9.4,25.8-6.3,38.3c2.9,11.3,13.3,15.7,23.6,18.4c4.9,1.3,9.9,2.1,14.9,3.3c6.8,1.6,13.4,4,19.9,6.5c14.1,5.4,27.4,12.1,42.1,16c14.3,3.8,28.9,6.1,43.1,10.2c2.1,0.6,3.7,0,4.8-1.1c4.1,19.6,9,39.1,14.3,58.3c0.7,2.6,1.5,5.3,2.3,7.9C225.3,392.1,225,392,224.8,391.9z M207.2,316.6c-0.3-0.1-0.5-0.2-0.8-0.3c-13-3.8-26.4-6.2-39.5-9.3c-14.4-3.5-27.4-9.8-41.1-15.3c-10.7-4.3-21.6-7.6-32.9-10c-4.6-1-9.3-2-13.7-3.9c-5.6-2.4-8.2-5.9-8.2-12.1c-0.1-5.7,2.5-11.5,3.8-17c1.5-6.6,3.2-13,4.3-19.7c2.5-14.8,4.8-29.7,7.5-44.5c0.6-3.6,1.3-7.1,2-10.7c1.2,2.6,2.5,5.1,3.6,7.5c3.8,8.6,7.6,17.1,11,25.8c3.4,8.8,6.5,17.8,8.4,27c1.3,6.4,2.4,13.8,7.1,18.8c5.3,5.5,12.4,4.1,18.8,1.7c10-3.8,18.9-10,28.5-14.7c3.2-1.6,8.1-3.9,10.8-4c2-0.1,4.6,1.1,6.5,1.9c2.7,1.1,5.4,2.4,7.8,4.1c0.8,0.6,1.6,1.2,2.3,1.8c-0.1,0.4-0.2,0.8-0.3,1.2c0.8,0.5,1.5,1.1,2.2,1.8c2.9,3.1,3.7,6.9,3.4,10.7C200.9,277.3,203.4,297,207.2,316.6z M193.8,219.5c1.1,4.2,1.7,8.6,2.1,13c-4.6-3-9.6-5.2-12.2-6c-7.5-2.4-13.1-0.8-20.1,2.4c-10.2,4.7-19.5,11.2-29.9,15.4c-2,0.8-5.3,2.7-7.3,1c-2-1.7-2.6-5.6-3.1-7.9c-2.3-9.1-4.2-18-7.2-26.9c-3.4-9.8-7.6-19.3-11.8-28.8c-1.5-3.5-3.1-7-4.7-10.5c-0.7-1.5-1.3-3.1-2-4.6c-0.2-0.5-1.1-3.6-0.8-1.4c-0.6-3.2-3.2-4.7-5.8-4.8c3.8-19.4,7.8-38.8,11.6-58.2c9.7,0.7,19.1,3.9,28.1,7.3c9.9,3.8,19.7,7.7,29.9,10.7c21.5,6.5,43.4,8.7,65.6,11.1c9.3,1,18.2,1.9,27.6,2.1c8.3,0.2,17.2,0.3,24.9,3.8c4.4,2,3.6,9.5,3.1,13.4c-0.5,4.1-1.9,12.7-6.3,14.7c-2.1,0.9-3.1,2.7-3.3,4.5c-0.4,0.1-0.8,0.2-1.2,0.3c-13.8,4-28,6.6-42,9.5c-8.8,1.8-17.5,3.7-26.2,6.1c-2.9,0.8-6,1.8-8.2,4c-1.1,1.2-1.5,2.5-1.5,3.7c-0.3,0.4-0.6,0.9-0.8,1.5C189.4,203.4,191.7,211.5,193.8,219.5z M445,392.9c-25.8,10.4-52.2,19.2-78.7,27.6c-23.1,7.4-46.1,15-68.9,23.2c-7.5,2.7-15.2,5.4-23.1,6.7c-2.9,0.5-6.7,0.9-10,0.3c-0.5,0.2-1,0.3-1.6,0.2c-4.2-1.3-6.7-4.4-8.3-8.3c-0.2-0.1-0.4-0.1-0.7-0.1c0-0.2-0.1-0.4-0.1-0.6c-0.1-0.9-0.2-1.8-0.4-2.7c-0.5-1.7-0.8-3.4-1.1-5.2c-1.4-5.6-3.6-11-5.6-16.1c-4.1-10.5-8.1-20.8-11.2-31.7c-6.3-21.6-11.7-43.7-16.2-65.8c-4.5-21.9-6.5-43.9-9.9-65.9c-1.6-10.3-2.5-20.8-3.4-31.2c-0.6-7.1-6.1-16-3.6-23.1c0.1-0.3,0.2-0.6,0.2-0.9c0.6-0.6,1.1-1.3,1.5-2.1c1.5-0.5,3-0.9,4.5-1.3c2.4-0.6,4.9-1.2,7.3-1.8c10.8-3,22-4.8,33-7.1c22.9-4.8,45-11.9,67.3-18.6c17.8-5.3,35.9-9.6,53.9-14.4c5.9-1.6,11.8-3.1,17.8-4.2c2.8-0.5,5.6-1,8.4-1.3c1-0.1,1.9-0.2,2.9-0.2c0.1,0,0.1,0,0.2,0c-0.6-0.4-1.5-1.1-2.1-2.7c0.5,1.2,1.3,2.1,2.2,2.6c0,0-0.1,0-0.1,0c0,0,0.1,0,0.1,0c0,0,0,0,0,0h0.1c0.8,0.1,0.8,0.3,0.3,0.2c1.7,0.8,3.7,0.6,5.3-0.2c0.5,0,1,0,1.6-0.1c3.3-0.6,4.4,1,5.8,3.9c1.7,3.7,3.1,7.4,4.8,11.1c4.4,9.5,8,19.3,11.4,29.1c6.7,19.4,12.7,39,18.1,58.8c5.4,19.9,10.2,39.8,15.4,59.8c3.9,14.9,5.1,30.5,9.3,45.3c1.3,2.6,2.1,5.2,2.4,8c1.1,2.8,2,5.7,2.1,8.8c0.2,0.3,0.4,0.6,0.7,0.9C480.9,378.5,448,391.7,445,392.9z" />
  <path d="M441.6,323.1c-0.1-6.7-0.3-13.4-0.1-20.2c-2.4-10.1-4.1-20.3-6-30.4c-2.6-13.5-5.3-27.1-8.5-40.5c-3.3-13.7-7.2-27.2-10.6-40.8c-1.5-5.9-3.1-11.8-4.5-17.8c-1.2-5.4-3.4-10.4-7.9-13.9c-1.4-1.1-3-1.4-4.4-1.1c-1.3-1.1-3-1.6-5-1c-28.8,8.5-55.8,21.8-85.5,27.4c-14.6,2.7-29.5,4.2-44,7.3c-1.4,0.3-2.8,0.6-4.2,1c-6.9,2.3-13.7,5.2-20.7,7.2c-3.3,0.9-6.7,1.5-10,2.1c-2.6,1-5.8,1.3-8.6,2.1c-0.5,0.2-1,0.4-1.5,0.5c-0.3,0.1-0.7,0.3-1,0.5c-1,1.6-2,3.3-2.6,5.2c-0.5,1.7-0.9,3.5-1.1,5.2c0,2.5,0.1,5,0.3,7.6c1.9,5.5,3.5,11.2,5.2,16.8c4.6,16,7.5,32.8,10.8,49.1c6.3,30.8,8.6,62.8,20.8,92.1c1.5,3.6,5.4,4.1,8.1,2.7c0.2,0.1,0.4,0.3,0.6,0.4c11.9,6.6,28.5-1.5,40.4-4.5c11.1-2.8,22.1-6.3,33.3-9c10.9-2.7,21.9-4.7,32.7-7.6c19.5-5.3,39.4-12.3,57.4-21.7c7-3.7,14.5-9.9,16.9-16.9C441.6,324.3,441.5,323.7,441.6,323.1z M252.9,341.5c-0.3,0.2-0.6,0.5-0.9,0.8c-3.6-17.1-5.9-34.6-9.3-51.8c-3.1-15.7-6.2-31.5-10-47c-1.9-7.7-4.3-15.2-6.6-22.8c-0.6-1.9-1.3-3.7-2-5.6c-0.2-0.7-0.5-1.4-0.7-2.1c14.3-1.2,27.8-6.2,41.6-9.7c15.2-3.9,31.2-5.1,46.7-7.9c29.7-5.5,56.7-18.7,85.4-27.3c3.4,2.9,4,7.3,5,11.5c1.4,6.3,3.2,12.6,4.8,18.9c3.2,13,6.9,25.9,10.1,38.9c1.5,6.2,2.8,12.4,4,18.7c0,0-0.1,0-0.1,0h-2c-2.2,0-3.6,1-4.3,2.4c-17.4,8.4-31.2,24-40.6,40.8c-7.9-3.7-16-7.1-24.3-9.9c-9.3-3.2-18.4-6.3-28.2-3.7c-7.7,2-14,8.3-19.9,13.3c-3,2.5-5.9,5-8.8,7.5c-9.5,8.1-18.9,16.3-28.2,24.6C260.5,334.7,256.7,338.1,252.9,341.5z M432.4,318.8c-0.1,0.5-0.3,0.9-0.6,1.2c1.3,7.2-19.6,15.6-23.3,17.2c-16.7,7.4-34.2,13.3-52,17.8c-18.7,4.7-37.5,8.7-56.1,14c-5.8,1.7-11.7,3.3-17.5,4.9c-4.9,1.3-12.3,3.6-17.1,0.9c-1.7-0.9-3.3-0.9-4.6-0.2c-2.5-6.4-4.5-13-6.3-19.6c1-0.5,1.8-1.4,2.3-2.8c-0.2,0.5-0.3,0.8-0.3,0.9c0.1-0.1,0.3-0.6,0.8-1c1.1-1.1,2.3-2.2,3.5-3.2c3.5-3.2,7.1-6.4,10.7-9.6c8.5-7.5,17-14.9,25.6-22.3c7.6-6.5,15.2-14.9,24.1-19.3c8-4,16.9-0.2,24.8,2.5c9.4,3.2,18.5,7.2,27.4,11.7c2.7,1.3,6,0.2,7.4-2.5c8.9-17.4,23.1-35,41.8-42.2c2.6,14.1,5.1,28.2,8.6,42c0,0,0,0,0,0c0.1,0.2,0.2,0.4,0.3,0.6C432.9,312.7,432.9,315.7,432.4,318.8z" />
  <path d="M372.3 207.2c-4.3-1.4-9-2.3-13.4-.7-4 1.5-6.3 5.5-8.8 8.6-2.8 3.5-.5 7.7 2.6 8.9 1.3 15.8 28.3 18 33.5 2.5C389.8 215.9 381.1 210.1 372.3 207.2zM363.7 222.8c.3-2.1-.5-3.8-1.8-4.9.2-.2.4-.5.5-.7 1.1-1.3 3.3-.4 4.8-.1 2 .4 9.1 2.2 8.9 4.8C375.6 227.8 363.1 227.2 363.7 222.8zM164.8 152.2c-4-7.3-12.9-9.9-20.6-8.2-8.7 2-13.6 9.5-13.4 18.1.1 2.2 1.2 3.7 2.7 4.4.4.4.8.8 1.3 1.1 6.3 4 15.4 6.1 22.7 4.4C166.8 169.9 169 159.8 164.8 152.2zM155.8 161.1c-1.2.7-3 .6-4.3.5-3.2-.3-6.4-1.1-9.4-2.5 1.8-5.3 10.7-7 13.3-1.2.4.8.4 1.4.5 2.3C156 160.6 155.9 160.9 155.8 161.1z" />
</svg>